PathFileType	4	(x/y/z)	A01_PREF_T0015.trc
DataRate	CameraRate	NumFrames	NumMarkers	Units	OrigDataRate	OrigDataStartFrame	OrigNumFrames
240	240	8	48	mm	240	145	288
Frame#	Time	TOP_HEAD			R_AC			L_AC			R_ASIS			L_ASIS			R_PSIS			L_PSIS			SACRAL			L_IC			R_IC			L_GT			R_GT			R_LAT_KNEE			R_MED_KNEE			L_MED_KNEE			L_LAT_KNEE			R_TOE			L_TOE			R_1ST_MET			L_1ST_MET			L_5TH_MET			R_5TH_MET			R_LAT_ANK			R_MED_ANK			L_MED_ANK			L_LAT_ANK			L_HEEL_SUP			R_HEEL_SUP			L_HEEL_LAT			R_HEEL_LAT			L_HEEL_MED			R_HEEL_MED			R_SHANK_PROX_POST			R_SHANK_PROX_ANT			R_SHANK_DIST_ANT			R_SHANK_DIST_POST			R_THIGH_PROX_POST			R_THIGH_PROX_ANT			R_THIGH_DIST_ANT			R_THIGH_DIST_POST			L_SHANK_PROX_ANT			L_SHANK_PROX_POST			L_SHANK_DIST_POST			L_SHANK_DIST_ANT			L_THIGH_PROX_ANT			L_THIGH_PROX_POST			L_THIGH_DIST_POST			L_THIGH_DIST_ANT			
		X1	Y1	Z1	X2	Y2	Z2	X3	Y3	Z3	X4	Y4	Z4	X5	Y5	Z5	X6	Y6	Z6	X7	Y7	Z7	X8	Y8	Z8	X9	Y9	Z9	X10	Y10	Z10	X11	Y11	Z11	X12	Y12	Z12	X13	Y13	Z13	X14	Y14	Z14	X15	Y15	Z15	X16	Y16	Z16	X17	Y17	Z17	X18	Y18	Z18	X19	Y19	Z19	X20	Y20	Z20	X21	Y21	Z21	X22	Y22	Z22	X23	Y23	Z23	X24	Y24	Z24	X25	Y25	Z25	X26	Y26	Z26	X27	Y27	Z27	X28	Y28	Z28	X29	Y29	Z29	X30	Y30	Z30	X31	Y31	Z31	X32	Y32	Z32	X33	Y33	Z33	X34	Y34	Z34	X35	Y35	Z35	X36	Y36	Z36	X37	Y37	Z37	X38	Y38	Z38	X39	Y39	Z39	X40	Y40	Z40	X41	Y41	Z41	X42	Y42	Z42	X43	Y43	Z43	X44	Y44	Z44	X45	Y45	Z45	X46	Y46	Z46	X47	Y47	Z47	X48	Y48	Z48	

145	0.60209	137.33	1781.4	376.56	-22.604	1530.1	553.04	-33.789	1538.8	94.66	-18.689	1063.8	524.25	-35.216	999.1	173.05	-238.49	1062.3	415.8	-235.21	1073.7	283.63	-255.27	1039.9	348.53	-56.497	1129.4	134.96	-57.583	1164.3	535.96	-116.14	929.63	137.64	-68.082	952.32	573.24	63.462	564.12	512.39	87.732	569.72	377.86	-196.07	535.9	364.68	-209.22	546.22	207.89	466.67	233.62	453.8	-242.2	71.156	274.93	414.8	168.85	402.91	-326.47	58.069	327.8	-354.82	51.951	201.67	390.2	143.87	532.65	255.47	130.23	501.19	265.17	144.87	399.69	-418.15	157.03	308.82	-449.96	159.68	241.11	-555.73	127.48	278.91	198.75	45.703	438.32	-552.15	96.729	248.18	217.89	30.377	474.4	-542.69	95.119	311.74	226.21	29.701	415.34	52.949	362.09	515.02	118.28	384.97	539.8	155.44	320.03	526.97	106.26	297.54	510.76	-60.121	804.34	554.6	-3.2774	844.92	560.9	31.142	760.82	551.22	-25.412	722.63	542.89	-203.59	452.32	222.62	-253.25	475.67	210.26	-285.84	422.27	219.59	-234.65	406.14	229.69	-88.359	778.62	177.26	-154.66	800.77	161.28	-161.58	725.6	173.98	-101.37	706.29	188.31
146	0.60627	143.04	1780.4	377.48	-16.319	1528.5	554.11	-27.891	1538	95.826	-11.998	1062.6	524.44	-29.491	997.85	173.18	-232.16	1061.1	416.64	-229.1	1072.6	284.48	-249.05	1038.8	349.39	-50.864	1128.6	135.34	-51.007	1162.7	536.59	-110.68	928.58	137.91	-61.169	951.22	573.52	71.032	563.35	512.38	94.807	569.01	377.98	-191.71	534.93	364.62	-204.78	545.34	207.87	472.85	231.73	451.58	-241.81	70.836	274.9	420.47	167.04	401.18	-326.07	58.257	327.79	-354.47	52.253	201.65	396.61	142.42	531.12	261.83	129.18	500.57	270.92	143.58	398.93	-416.95	157.85	308.76	-448.74	160.81	241.11	-554.8	129.34	278.9	204.22	45.117	438.19	-551.47	98.565	248.21	223.51	29.786	474.22	-541.99	96.902	311.74	231.41	28.844	415.1	60.082	361.39	515.27	125.65	384.09	539.58	162.54	319.04	526.64	113.22	296.7	510.75	-52.91	803.4	554.92	3.8373	844.15	561.04	38.427	760.14	551.25	-17.983	721.78	543.11	-199.93	451.4	222.59	-249.41	475.16	210.22	-282.44	422.03	219.57	-231.38	405.48	229.65	-83.334	777.46	177.34	-149.58	799.82	161.44	-156.8	724.64	174.11	-96.555	705.16	188.31
147	0.61045	148.76	1779.4	378.39	-10.03	1526.9	555.19	-21.97	1537.2	97.015	-5.2855	1061.6	524.65	-23.683	996.58	173.34	-225.8	1059.9	417.46	-222.95	1071.5	285.29	-242.77	1037.6	350.24	-45.153	1127.7	135.74	-44.436	1161.2	537.23	-105.12	927.5	138.21	-54.203	950.16	573.83	78.708	562.62	512.37	102.05	568.34	378.14	-187.22	533.94	364.56	-200.21	544.44	207.85	478.79	229.3	449.32	-241.39	70.502	274.86	425.78	164.78	399.45	-325.65	58.463	327.78	-354.11	52.582	201.63	402.61	140.63	529.57	267.79	128.02	499.94	276.29	142.13	398.17	-415.7	158.73	308.7	-447.46	162.01	241.1	-553.81	131.3	278.91	209.12	44.584	438.07	-550.73	100.51	248.24	228.51	29.228	474.05	-541.24	98.787	311.75	235.98	27.968	414.87	67.138	360.79	515.52	132.96	383.22	539.34	169.51	318.03	526.28	120.02	295.88	510.73	-45.599	802.5	555.24	11.047	843.44	561.18	45.827	759.54	551.26	-10.422	720.99	543.32	-196.17	450.47	222.56	-245.45	474.65	210.19	-278.92	421.79	219.55	-228.01	404.83	229.62	-78.216	776.29	177.44	-144.41	798.86	161.6	-151.91	723.66	174.26	-91.639	704.01	188.32
148	0.61463	154.5	1778.4	379.28	-3.739	1525.3	556.29	-16.031	1536.4	98.224	1.4466	1060.5	524.88	-17.792	995.31	173.54	-219.4	1058.7	418.25	-216.75	1070.3	286.07	-236.44	1036.4	351.05	-39.359	1126.8	136.16	-37.873	1159.7	537.88	-99.463	926.4	138.52	-47.183	949.14	574.14	86.474	561.95	512.34	109.42	567.72	378.32	-182.6	532.94	364.5	-195.51	543.54	207.83	484.51	226.33	447.04	-240.96	70.154	274.82	430.75	162.08	397.71	-325.2	58.688	327.77	-353.72	52.941	201.61	408.21	138.52	528.02	273.36	126.77	499.32	281.31	140.56	397.39	-414.38	159.66	308.65	-446.11	163.27	241.1	-552.74	133.38	278.91	213.48	44.124	437.96	-549.95	102.56	248.28	232.93	28.723	473.89	-540.43	100.78	311.76	239.95	27.099	414.66	74.121	360.27	515.76	140.22	382.39	539.09	176.36	317.01	525.89	126.66	295.11	510.7	-38.201	801.64	555.57	18.344	842.8	561.32	53.329	759.01	551.27	-2.7484	720.26	543.53	-192.29	449.53	222.53	-241.36	474.15	210.16	-275.3	421.57	219.53	-224.54	404.17	229.59	-73.004	775.11	177.57	-139.15	797.87	161.78	-146.92	722.66	174.41	-86.619	702.86	188.36
149	0.61882	160.27	1777.4	380.14	2.55	1523.6	557.4	-10.076	1535.6	99.451	8.1971	1059.5	525.13	-11.816	994.04	173.76	-212.98	1057.4	419.02	-210.5	1069.1	286.82	-230.07	1035.1	351.84	-33.478	1125.9	136.6	-31.317	1158.1	538.56	-93.713	925.27	138.85	-40.114	948.18	574.47	94.313	561.34	512.32	116.9	567.15	378.51	-177.83	531.92	364.45	-190.67	542.61	207.81	490.03	222.86	444.77	-240.51	69.789	274.78	435.39	158.99	396.01	-324.72	58.932	327.77	-353.32	53.333	201.58	413.42	136.09	526.49	278.58	125.46	498.7	285.99	138.88	396.62	-412.99	160.65	308.59	-444.68	164.61	241.11	-551.59	135.56	278.93	217.34	43.759	437.86	-549.09	104.74	248.32	236.8	28.289	473.75	-539.56	102.9	311.78	243.36	26.261	414.47	81.036	359.85	516.01	147.43	381.6	538.82	183.1	315.99	525.47	133.17	294.38	510.68	-30.729	800.83	555.9	25.719	842.23	561.45	60.916	758.55	551.27	5.0156	719.58	543.74	-188.29	448.59	222.5	-237.14	473.64	210.14	-271.55	421.37	219.51	-220.94	403.51	229.57	-67.695	773.93	177.71	-133.79	796.87	161.97	-141.82	721.64	174.57	-81.49	701.7	188.42
150	0.623	166.06	1776.4	380.98	8.8349	1522	558.54	-4.1097	1534.7	100.69	14.964	1058.6	525.41	-5.7566	992.76	174.03	-206.54	1056.2	419.75	-204.21	1067.9	287.54	-223.65	1033.8	352.59	-27.507	1124.9	137.07	-24.767	1156.6	539.25	-87.866	924.12	139.19	-32.997	947.28	574.82	102.21	560.79	512.28	124.45	566.63	378.7	-172.91	530.88	364.39	-185.67	541.67	207.8	495.37	218.92	442.53	-240.03	69.408	274.73	439.75	155.54	394.34	-324.21	59.198	327.77	-352.89	53.76	201.55	418.26	133.4	524.98	283.46	124.1	498.1	290.37	137.14	395.87	-411.51	161.72	308.54	-443.16	166.02	241.13	-550.34	137.88	278.95	220.73	43.505	437.77	-548.17	107.04	248.37	240.15	27.943	473.62	-538.61	105.14	311.81	246.25	25.48	414.31	87.885	359.53	516.26	154.6	380.86	538.54	189.73	314.99	525.05	139.55	293.71	510.66	-23.199	800.06	556.25	33.161	841.71	561.57	68.573	758.15	551.26	12.847	718.95	543.95	-184.15	447.64	222.48	-232.79	473.13	210.12	-267.67	421.18	219.5	-217.23	402.86	229.54	-62.285	772.74	177.87	-128.34	795.86	162.18	-136.61	720.61	174.75	-76.247	700.53	188.49
151	0.62718	171.89	1775.5	381.81	15.113	1520.3	559.69	1.8656	1533.9	101.95	21.743	1057.8	525.71	0.38636	991.48	174.32	-200.07	1054.9	420.45	-197.87	1066.6	288.21	-217.18	1032.5	353.32	-21.443	1123.9	137.56	-18.224	1155.1	539.97	-81.922	922.95	139.56	-25.837	946.44	575.17	110.15	560.32	512.24	132.04	566.16	378.89	-167.82	529.82	364.35	-180.52	540.73	207.79	500.54	214.56	440.35	-239.54	69.009	274.68	443.84	151.78	392.74	-323.67	59.487	327.78	-352.43	54.226	201.53	422.77	130.46	523.53	288.03	122.71	497.52	294.47	135.36	395.13	-409.95	162.86	308.5	-441.55	167.53	241.15	-548.99	140.33	278.98	223.69	43.376	437.69	-547.17	109.49	248.42	243.02	27.695	473.52	-537.59	107.53	311.85	248.67	24.778	414.17	94.675	359.32	516.53	161.71	380.18	538.26	196.27	314.03	524.6	145.81	293.11	510.65	-15.625	799.35	556.6	40.659	841.26	561.68	76.28	757.82	551.25	20.724	718.38	544.17	-179.88	446.69	222.46	-228.28	472.63	210.1	-263.66	421.01	219.49	-213.38	402.22	229.53	-56.771	771.56	178.05	-122.78	794.84	162.4	-131.27	719.57	174.94	-70.886	699.37	188.59
152	0.63136	177.75	1774.5	382.6	21.382	1518.7	560.86	7.8454	1533.1	103.21	28.529	1057	526.02	6.6105	990.21	174.65	-193.58	1053.7	421.12	-191.49	1065.3	288.84	-210.67	1031.2	354.01	-15.284	1123	138.07	-11.684	1153.7	540.71	-75.881	921.77	139.95	-18.642	945.66	575.54	118.12	559.92	512.21	139.63	565.73	379.08	-162.55	528.76	364.3	-175.19	539.77	207.78	505.56	209.83	438.26	-239.02	68.59	274.63	447.68	147.75	391.21	-323.09	59.799	327.79	-351.94	54.735	201.5	426.95	127.31	522.15	292.31	121.32	496.97	298.32	133.57	394.43	-408.29	164.1	308.47	-439.83	169.13	241.18	-547.53	142.93	279.03	226.28	43.379	437.64	-546.08	112.09	248.49	245.48	27.553	473.43	-536.47	110.06	311.91	250.67	24.172	414.05	101.41	359.21	516.82	168.79	379.58	537.99	202.72	313.13	524.16	151.97	292.59	510.66	-8.0232	798.71	556.96	48.201	840.87	561.8	84.019	757.54	551.23	28.621	717.87	544.38	-175.46	445.74	222.44	-223.62	472.14	210.08	-259.49	420.86	219.48	-209.4	401.59	229.52	-51.15	770.39	178.26	-117.11	793.81	162.64	-125.8	718.52	175.14	-65.402	698.21	188.71
